<svg width="19" height="19" viewBox="0 0 19 19" fill="none" xmlns="http://www.w3.org/2000/svg">
<path d="M8.71563 1.42705C9.01498 0.505741 10.3184 0.50574 10.6177 1.42705L12.1363 6.10081C12.2702 6.51284 12.6542 6.7918 13.0874 6.7918H18.0017C18.9704 6.7918 19.3732 8.03141 18.5895 8.60081L14.6137 11.4894C14.2632 11.744 14.1166 12.1954 14.2505 12.6074L15.7691 17.2812C16.0684 18.2025 15.0139 18.9686 14.2302 18.3992L10.2545 15.5106C9.90399 15.256 9.42939 15.256 9.0789 15.5106L5.10316 18.3992C4.31945 18.9686 3.26497 18.2025 3.56432 17.2812L5.08292 12.6074C5.21679 12.1954 5.07013 11.744 4.71965 11.4894L0.743908 8.60081C-0.0398057 8.03141 0.36297 6.7918 1.33169 6.7918H6.24598C6.6792 6.7918 7.06316 6.51284 7.19703 6.10081L8.71563 1.42705Z" fill="#D72537"/>
</svg>
