<svg width="30" height="26" viewBox="0 0 30 26" fill="none" xmlns="http://www.w3.org/2000/svg">
<path d="M2.52684 11.3841C2.52684 11.3841 15.344 5.98575 19.7892 4.08485C21.4933 3.32456 27.2721 0.891398 27.2721 0.891398C27.2721 0.891398 29.9393 -0.173016 29.717 2.4121C29.6428 3.47662 29.0502 7.20223 28.4575 11.2321C27.5684 16.9347 26.6053 23.1694 26.6053 23.1694C26.6053 23.1694 26.4571 24.9182 25.1976 25.2224C23.9382 25.5265 21.8636 24.1579 21.4933 23.8537C21.1968 23.6257 15.9367 20.2041 14.0104 18.5313C13.4918 18.0752 12.8991 17.1628 14.0844 16.0983C16.7516 13.5891 19.9374 10.4718 21.8636 8.49489C22.7527 7.58243 23.6417 5.45349 19.9374 8.03861C14.6772 11.7643 9.49107 15.2619 9.49107 15.2619C9.49107 15.2619 8.30563 16.0222 6.08304 15.3379C3.86033 14.6537 1.26727 13.7412 1.26727 13.7412C1.26727 13.7412 -0.510729 12.6007 2.52684 11.3841Z" fill="black" fill-opacity="0.9"/>
</svg>
