<svg width="33" height="33" viewBox="0 0 33 33" fill="none" xmlns="http://www.w3.org/2000/svg">
<path d="M0.750122 32.0837L3.01018 23.6803C1.1875 20.4067 0.608417 16.5867 1.37919 12.9213C2.14996 9.25592 4.21889 5.99094 7.20632 3.72552C10.1938 1.4601 13.8993 0.346193 17.643 0.588208C21.3867 0.830223 24.9174 2.41192 27.5872 5.04307C30.257 7.67421 31.8869 11.1783 32.1778 14.9123C32.4686 18.6464 31.4009 22.3599 29.1706 25.3714C26.9402 28.383 23.6969 30.4905 20.0357 31.3074C16.3744 32.1243 12.541 31.5956 9.23867 29.8185L0.750122 32.0837ZM9.64797 26.6739L10.1729 26.9848C12.5649 28.4002 15.3586 28.9859 18.1188 28.6506C20.879 28.3154 23.4505 27.078 25.4327 25.1314C27.415 23.1847 28.6965 20.6381 29.0776 17.8883C29.4587 15.1386 28.918 12.3403 27.5398 9.92937C26.1616 7.51846 24.0232 5.63044 21.4579 4.55951C18.8926 3.48859 16.0446 3.29492 13.3575 4.00868C10.6705 4.72245 8.29542 6.30356 6.60245 8.50562C4.90948 10.7077 3.99371 13.407 3.99784 16.1829C3.99559 18.4846 4.6332 20.7417 5.83969 22.7031L6.16891 23.245L4.90542 27.9353L9.64797 26.6739Z" fill="black" fill-opacity="0.9"/>
</svg>
