<svg width="16" height="16" viewBox="0 0 16 16" fill="none" xmlns="http://www.w3.org/2000/svg">
<path d="M13.3337 6.66671C13.3337 10.6667 8.00033 14.6667 8.00033 14.6667C8.00033 14.6667 2.66699 10.6667 2.66699 6.66671C2.66699 5.25222 3.2289 3.89567 4.22909 2.89547C5.22928 1.89528 6.58584 1.33337 8.00033 1.33337C9.41481 1.33337 10.7714 1.89528 11.7716 2.89547C12.7718 3.89567 13.3337 5.25222 13.3337 6.66671Z" stroke="#D92F31" stroke-linecap="round" stroke-linejoin="round"/>
<path d="M8 8.66666C9.10457 8.66666 10 7.77123 10 6.66666C10 5.56209 9.10457 4.66666 8 4.66666C6.89543 4.66666 6 5.56209 6 6.66666C6 7.77123 6.89543 8.66666 8 8.66666Z" stroke="#D92F31" stroke-linecap="round" stroke-linejoin="round"/>
</svg>
