<?xml version="1.0" encoding="utf-8"?><svg viewBox="0 0 33 26" xmlns="http://www.w3.org/2000/svg" xmlns:xlink="http://www.w3.org/1999/xlink"><style>:root>svg{display:none}:root>svg:target{display:block}</style><svg viewBox="0 0 19 19" id="Star" xmlns="http://www.w3.org/2000/svg"><path d="M8.716 1.427c.299-.921 1.602-.921 1.902 0l1.518 4.674a1 1 0 0 0 .951.69h4.915c.968 0 1.371 1.24.588 1.81l-3.976 2.888a1 1 0 0 0-.364 1.118l1.52 4.674c.298.922-.756 1.688-1.54 1.118l-3.976-2.888a1 1 0 0 0-1.175 0l-3.976 2.888c-.784.57-1.838-.197-1.539-1.118l1.519-4.674a1 1 0 0 0-.363-1.118L.744 8.601c-.784-.57-.381-1.81.588-1.81h4.914a1 1 0 0 0 .951-.69l1.519-4.674Z"/></svg><svg viewBox="0 0 10 7" id="arrow" xmlns="http://www.w3.org/2000/svg"><path d="m1 1.5 4 4 4-4"/></svg><svg viewBox="0 0 16 16" id="arrow-line" xmlns="http://www.w3.org/2000/svg"><path d="M0 9h12.17l-5.59 5.59L8 16l8-8-8-8-1.41 1.41L12.17 7H0v2Z"/></svg><svg viewBox="0 0 33 8" id="arrow-long" xmlns="http://www.w3.org/2000/svg"><path d="M.646 3.646a.5.5 0 0 0 0 .708l3.182 3.182a.5.5 0 1 0 .708-.708L1.707 4l2.829-2.828a.5.5 0 1 0-.708-.708L.646 3.646ZM33 3.5H1v1h32v-1Z" fill-opacity=".6"/></svg><svg viewBox="0 0 22 23" id="check" xmlns="http://www.w3.org/2000/svg"><g clip-path="url(#da)" stroke-opacity=".9" stroke-width="2"><circle cx="11" cy="11.5" r="10"/><path d="m15 8.5-5.5 6L7 11.773"/></g><defs><clipPath id="da"><path transform="translate(0 .5)" d="M0 0h22v22H0z"/></clipPath></defs></svg><svg viewBox="0 0 16 13" id="flags-ru" xmlns="http://www.w3.org/2000/svg"><rect x=".25" y=".75" width="15.5" height="11.5" rx="1.75"/><mask id="ea" maskUnits="userSpaceOnUse" x="0" y="0" width="16" height="13"><rect x=".25" y=".75" width="15.5" height="11.5" rx="1.75" stroke-width=".5"/></mask><g mask="url(#ea)" fill-rule="evenodd" clip-rule="evenodd"><path d="M0 8.5h16v-4H0v4ZM0 12.5h16v-4H0v4Z"/></g></svg><svg viewBox="0 0 16 16" id="map" xmlns="http://www.w3.org/2000/svg"><path d="M13.334 6.667c0 4-5.334 8-5.334 8s-5.333-4-5.333-8a5.333 5.333 0 0 1 10.667 0Z"/><path d="M8 8.667a2 2 0 1 0 0-4 2 2 0 0 0 0 4Z"/></svg><svg viewBox="0 0 16 16" id="phone" xmlns="http://www.w3.org/2000/svg"><path d="M14.667 11.28v2a1.332 1.332 0 0 1-1.453 1.333 13.193 13.193 0 0 1-5.754-2.047 13 13 0 0 1-4-4 13.193 13.193 0 0 1-2.046-5.78A1.333 1.333 0 0 1 2.74 1.333h2A1.333 1.333 0 0 1 6.074 2.48a8.56 8.56 0 0 0 .466 1.873 1.333 1.333 0 0 1-.3 1.407l-.846.846a10.667 10.667 0 0 0 4 4l.846-.846a1.333 1.333 0 0 1 1.407-.3 8.56 8.56 0 0 0 1.873.466 1.333 1.333 0 0 1 1.147 1.354Z"/></svg><svg viewBox="0 0 21 24" id="player" xmlns="http://www.w3.org/2000/svg"><path d="M19.5 9.402c2 1.155 2 4.041 0 5.196l-15 8.66C2.5 24.413 0 22.97 0 20.66V3.34C0 1.03 2.5-.413 4.5.742l15 8.66Z"/></svg><svg viewBox="0 0 18 3" id="slide-arrow" xmlns="http://www.w3.org/2000/svg"><path d="M16.75.5a1 1 0 1 1 0 2v-2ZM.25.5h16.5v2H.25v-2Z"/></svg><svg viewBox="0 0 30 26" id="tg" xmlns="http://www.w3.org/2000/svg"><path d="M2.527 11.384s12.817-5.398 17.262-7.3c1.704-.76 7.483-3.193 7.483-3.193s2.667-1.064 2.445 1.521c-.074 1.065-.667 4.79-1.26 8.82-.889 5.703-1.852 11.937-1.852 11.937s-.148 1.75-1.407 2.053c-1.26.304-3.334-1.064-3.705-1.368-.296-.228-5.556-3.65-7.483-5.323-.518-.456-1.11-1.368.074-2.433 2.668-2.509 5.853-5.626 7.78-7.603.889-.913 1.778-3.042-1.927-.456a632.095 632.095 0 0 1-10.446 7.223s-1.185.76-3.408.076-4.816-1.597-4.816-1.597-1.778-1.14 1.26-2.357Z" fill-opacity=".9"/></svg><svg viewBox="0 0 24 24" id="whatsapp" xmlns="http://www.w3.org/2000/svg"><path d="M12.012 2c-5.506 0-9.989 4.478-9.99 9.984a9.964 9.964 0 0 0 1.333 4.993L2 22l5.232-1.236a9.981 9.981 0 0 0 4.774 1.215h.004c5.505 0 9.985-4.48 9.988-9.985a9.922 9.922 0 0 0-2.922-7.066A9.923 9.923 0 0 0 12.012 2zm-.002 2a7.95 7.95 0 0 1 5.652 2.342 7.93 7.93 0 0 1 2.336 5.65c-.002 4.404-3.584 7.987-7.99 7.987a7.999 7.999 0 0 1-3.817-.971l-.673-.367-.745.175-1.968.465.48-1.785.217-.8-.414-.72a7.98 7.98 0 0 1-1.067-3.992C4.023 7.582 7.607 4 12.01 4zM8.477 7.375a.917.917 0 0 0-.666.313c-.23.248-.875.852-.875 2.08 0 1.228.894 2.415 1.02 2.582.123.166 1.726 2.765 4.263 3.765 2.108.831 2.536.667 2.994.625.458-.04 1.477-.602 1.685-1.185.208-.583.209-1.085.147-1.188-.062-.104-.229-.166-.479-.29-.249-.126-1.476-.728-1.705-.811-.229-.083-.396-.125-.562.125-.166.25-.643.81-.79.976-.145.167-.29.19-.54.065-.25-.126-1.054-.39-2.008-1.24-.742-.662-1.243-1.477-1.389-1.727-.145-.25-.013-.386.112-.51.112-.112.248-.291.373-.437.124-.146.167-.25.25-.416.083-.166.04-.313-.022-.438s-.547-1.357-.77-1.851c-.186-.415-.384-.425-.562-.432-.145-.006-.31-.006-.476-.006z"/></svg></svg>