<?xml version="1.0" encoding="utf-8"?><svg viewBox="0 0 33 30" xmlns="http://www.w3.org/2000/svg" xmlns:xlink="http://www.w3.org/1999/xlink"><style>:root>svg{display:none}:root>svg:target{display:block}</style><svg viewBox="0 0 19 19" id="Star" xmlns="http://www.w3.org/2000/svg"><path d="M8.716 1.427c.299-.921 1.602-.921 1.902 0l1.518 4.674a1 1 0 0 0 .951.69h4.915c.968 0 1.371 1.24.588 1.81l-3.976 2.888a1 1 0 0 0-.364 1.118l1.52 4.674c.298.922-.756 1.688-1.54 1.118l-3.976-2.888a1 1 0 0 0-1.175 0l-3.976 2.888c-.784.57-1.838-.197-1.539-1.118l1.519-4.674a1 1 0 0 0-.363-1.118L.744 8.601c-.784-.57-.381-1.81.588-1.81h4.914a1 1 0 0 0 .951-.69l1.519-4.674Z"/></svg><svg viewBox="0 0 10 7" id="arrow" xmlns="http://www.w3.org/2000/svg"><path d="m1 1.5 4 4 4-4"/></svg><svg viewBox="0 0 16 16" id="arrow-line" xmlns="http://www.w3.org/2000/svg"><path d="M0 9h12.17l-5.59 5.59L8 16l8-8-8-8-1.41 1.41L12.17 7H0v2Z"/></svg><svg viewBox="0 0 33 8" id="arrow-long" xmlns="http://www.w3.org/2000/svg"><path d="M.646 3.646a.5.5 0 0 0 0 .708l3.182 3.182a.5.5 0 1 0 .708-.708L1.707 4l2.829-2.828a.5.5 0 1 0-.708-.708L.646 3.646ZM33 3.5H1v1h32v-1Z" fill-opacity=".6"/></svg><svg viewBox="0 0 22 23" id="check" xmlns="http://www.w3.org/2000/svg"><g clip-path="url(#da)" stroke-opacity=".9" stroke-width="2"><circle cx="11" cy="11.5" r="10"/><path d="m15 8.5-5.5 6L7 11.773"/></g><defs><clipPath id="da"><path transform="translate(0 .5)" d="M0 0h22v22H0z"/></clipPath></defs></svg><svg viewBox="0 0 16 13" id="flags-ru" xmlns="http://www.w3.org/2000/svg"><rect x=".25" y=".75" width="15.5" height="11.5" rx="1.75"/><mask id="ea" maskUnits="userSpaceOnUse" x="0" y="0" width="16" height="13"><rect x=".25" y=".75" width="15.5" height="11.5" rx="1.75" stroke-width=".5"/></mask><g mask="url(#ea)" fill-rule="evenodd" clip-rule="evenodd"><path d="M0 8.5h16v-4H0v4ZM0 12.5h16v-4H0v4Z"/></g></svg><svg viewBox="0 0 16 16" id="map" xmlns="http://www.w3.org/2000/svg"><path d="M13.334 6.667c0 4-5.334 8-5.334 8s-5.333-4-5.333-8a5.333 5.333 0 0 1 10.667 0Z"/><path d="M8 8.667a2 2 0 1 0 0-4 2 2 0 0 0 0 4Z"/></svg><svg viewBox="0 0 16 16" id="phone" xmlns="http://www.w3.org/2000/svg"><path d="M14.667 11.28v2a1.332 1.332 0 0 1-1.453 1.333 13.193 13.193 0 0 1-5.754-2.047 13 13 0 0 1-4-4 13.193 13.193 0 0 1-2.046-5.78A1.333 1.333 0 0 1 2.74 1.333h2A1.333 1.333 0 0 1 6.074 2.48a8.56 8.56 0 0 0 .466 1.873 1.333 1.333 0 0 1-.3 1.407l-.846.846a10.667 10.667 0 0 0 4 4l.846-.846a1.333 1.333 0 0 1 1.407-.3 8.56 8.56 0 0 0 1.873.466 1.333 1.333 0 0 1 1.147 1.354Z"/></svg><svg viewBox="0 0 21 24" id="player" xmlns="http://www.w3.org/2000/svg"><path d="M19.5 9.402c2 1.155 2 4.041 0 5.196l-15 8.66C2.5 24.413 0 22.97 0 20.66V3.34C0 1.03 2.5-.413 4.5.742l15 8.66Z"/></svg><svg viewBox="0 0 18 3" id="slide-arrow" xmlns="http://www.w3.org/2000/svg"><path d="M16.75.5a1 1 0 1 1 0 2v-2ZM.25.5h16.5v2H.25v-2Z"/></svg><svg viewBox="0 0 30 26" id="tg" xmlns="http://www.w3.org/2000/svg"><path d="M2.527 11.384s12.817-5.398 17.262-7.3c1.704-.76 7.483-3.193 7.483-3.193s2.667-1.064 2.445 1.521c-.074 1.065-.667 4.79-1.26 8.82-.889 5.703-1.852 11.937-1.852 11.937s-.148 1.75-1.407 2.053c-1.26.304-3.334-1.064-3.705-1.368-.296-.228-5.556-3.65-7.483-5.323-.518-.456-1.11-1.368.074-2.433 2.668-2.509 5.853-5.626 7.78-7.603.889-.913 1.778-3.042-1.927-.456a632.095 632.095 0 0 1-10.446 7.223s-1.185.76-3.408.076-4.816-1.597-4.816-1.597-1.778-1.14 1.26-2.357Z" fill-opacity=".9"/></svg><svg viewBox="0 0 48 48" id="whatsapp" xmlns="http://www.w3.org/2000/svg"><path d="M24 3.998c-11.028 0-20 8.972-20 20 0 3.275.863 6.337 2.262 9.066l-2.168 7.762c-.505 1.804 1.278 3.587 3.082 3.082l7.767-2.168c2.728 1.396 5.785 2.258 9.057 2.258 11.028 0 20-8.972 20-20s-8.972-20-20-20zm0 3c9.406 0 17 7.594 17 17 0 9.406-7.594 17-17 17-3.002 0-5.81-.78-8.258-2.144a1.5 1.5 0 0 0-1.133-.135l-7.386 2.06 2.062-7.383a1.5 1.5 0 0 0-.135-1.134A16.89 16.89 0 0 1 7 23.998c0-9.406 7.594-17 17-17zM17.24 15c-.319 0-.834.12-1.273.598-.438.476-1.672 1.63-1.672 3.98s1.71 4.62 1.95 4.94c.237.317 3.302 5.295 8.157 7.209 4.034 1.59 4.855 1.273 5.73 1.193.877-.078 2.827-1.154 3.225-2.27.398-1.116.399-2.07.282-2.267-.12-.2-.438-.32-.916-.559-.477-.239-2.824-1.394-3.262-1.553-.438-.159-.758-.24-1.076.239-.318.478-1.233 1.553-1.512 1.87-.279.32-.557.361-1.035.122-.48-.241-2.016-.744-3.842-2.371-1.42-1.265-2.375-2.829-2.654-3.307-.278-.476-.03-.737.209-.974.215-.214.478-.557.717-.836.237-.28.315-.477.474-.795.16-.317.08-.597-.039-.836-.119-.24-1.048-2.602-1.473-3.547-.357-.794-.733-.811-1.074-.824A24.279 24.279 0 0 0 17.24 15z"/></svg></svg>